solid ascii
 facet normal 0.998026 0 -0.0628013
  outer loop
   vertex 0.3 0.2 0
   vertex 0.3 -0.8 0
   vertex 0.297634 0.2 -0.0376
  endloop
 endfacet
 facet normal 0.998026 0 -0.0628013
  outer loop
   vertex 0.297634 -0.8 -0.0376
   vertex 0.297634 0.2 -0.0376
   vertex 0.3 -0.8 0
  endloop
 endfacet
 facet normal 0.98229 0 -0.187369
  outer loop
   vertex 0.297634 0.2 -0.0376
   vertex 0.297634 -0.8 -0.0376
   vertex 0.290575 0.2 -0.074607
  endloop
 endfacet
 facet normal 0.98229 0 -0.187369
  outer loop
   vertex 0.290575 -0.8 -0.074607
   vertex 0.290575 0.2 -0.074607
   vertex 0.297634 -0.8 -0.0376
  endloop
 endfacet
 facet normal 0.951056 0 -0.30902
  outer loop
   vertex 0.290575 0.2 -0.074607
   vertex 0.290575 -0.8 -0.074607
   vertex 0.278933 0.2 -0.110437
  endloop
 endfacet
 facet normal 0.951056 0 -0.30902
  outer loop
   vertex 0.278933 -0.8 -0.110437
   vertex 0.278933 0.2 -0.110437
   vertex 0.290575 -0.8 -0.074607
  endloop
 endfacet
 facet normal 0.904828 0 -0.425778
  outer loop
   vertex 0.278933 0.2 -0.110437
   vertex 0.278933 -0.8 -0.110437
   vertex 0.262892 0.2 -0.144526
  endloop
 endfacet
 facet normal 0.904828 0 -0.425778
  outer loop
   vertex 0.262892 0.2 -0.144526
   vertex 0.278933 -0.8 -0.110437
   vertex 0.262892 -0.8 -0.144526
  endloop
 endfacet
 facet normal 0.844331 0 -0.535822
  outer loop
   vertex 0.262892 0.2 -0.144526
   vertex 0.262892 -0.8 -0.144526
   vertex 0.242705 0.2 -0.176336
  endloop
 endfacet
 facet normal 0.844331 0 -0.535822
  outer loop
   vertex 0.242705 -0.8 -0.176336
   vertex 0.242705 0.2 -0.176336
   vertex 0.262892 -0.8 -0.144526
  endloop
 endfacet
 facet normal 0.770514 0 -0.637423
  outer loop
   vertex 0.242705 0.2 -0.176336
   vertex 0.242705 -0.8 -0.176336
   vertex 0.218691 0.2 -0.205364
  endloop
 endfacet
 facet normal 0.770514 0 -0.637423
  outer loop
   vertex 0.218691 -0.8 -0.205364
   vertex 0.218691 0.2 -0.205364
   vertex 0.242705 -0.8 -0.176336
  endloop
 endfacet
 facet normal 0.684541 0 -0.728974
  outer loop
   vertex 0.218691 0.2 -0.205364
   vertex 0.218691 -0.8 -0.205364
   vertex 0.191227 0.2 -0.231154
  endloop
 endfacet
 facet normal 0.684541 0 -0.728974
  outer loop
   vertex 0.191227 -0.8 -0.231154
   vertex 0.191227 0.2 -0.231154
   vertex 0.218691 -0.8 -0.205364
  endloop
 endfacet
 facet normal 0.58778 0 -0.809021
  outer loop
   vertex 0.191227 0.2 -0.231154
   vertex 0.191227 -0.8 -0.231154
   vertex 0.160748 0.2 -0.253298
  endloop
 endfacet
 facet normal 0.58778 0 -0.809021
  outer loop
   vertex 0.160748 0.2 -0.253298
   vertex 0.191227 -0.8 -0.231154
   vertex 0.160748 -0.8 -0.253298
  endloop
 endfacet
 facet normal 0.481762 0 -0.876302
  outer loop
   vertex 0.160748 0.2 -0.253298
   vertex 0.160748 -0.8 -0.253298
   vertex 0.127734 0.2 -0.271448
  endloop
 endfacet
 facet normal 0.481762 0 -0.876302
  outer loop
   vertex 0.127734 -0.8 -0.271448
   vertex 0.127734 0.2 -0.271448
   vertex 0.160748 -0.8 -0.253298
  endloop
 endfacet
 facet normal 0.368126 0 -0.929776
  outer loop
   vertex 0.127734 0.2 -0.271448
   vertex 0.127734 -0.8 -0.271448
   vertex 0.0927051 0.2 -0.285317
  endloop
 endfacet
 facet normal 0.368126 0 -0.929776
  outer loop
   vertex 0.0927051 -0.8 -0.285317
   vertex 0.0927051 0.2 -0.285317
   vertex 0.127734 -0.8 -0.271448
  endloop
 endfacet
 facet normal 0.248684 0 -0.968585
  outer loop
   vertex 0.0927051 0.2 -0.285317
   vertex 0.0927051 -0.8 -0.285317
   vertex 0.0562144 0.2 -0.294686
  endloop
 endfacet
 facet normal 0.248684 0 -0.968585
  outer loop
   vertex 0.0562144 -0.8 -0.294686
   vertex 0.0562144 0.2 -0.294686
   vertex 0.0927051 -0.8 -0.285317
  endloop
 endfacet
 facet normal 0.125337 0 -0.992114
  outer loop
   vertex 0.0562144 0.2 -0.294686
   vertex 0.0562144 -0.8 -0.294686
   vertex 0.0188372 0.2 -0.299408
  endloop
 endfacet
 facet normal 0.125337 0 -0.992114
  outer loop
   vertex 0.0188372 -0.8 -0.299408
   vertex 0.0188372 0.2 -0.299408
   vertex 0.0562144 -0.8 -0.294686
  endloop
 endfacet
 facet normal -0 -0 -1
  outer loop
   vertex 0.0188372 0.2 -0.299408
   vertex 0.0188372 -0.8 -0.299408
   vertex -0.0188372 0.2 -0.299408
  endloop
 endfacet
 facet normal 0 0 -1
  outer loop
   vertex -0.0188372 -0.8 -0.299408
   vertex -0.0188372 0.2 -0.299408
   vertex 0.0188372 -0.8 -0.299408
  endloop
 endfacet
 facet normal -0.125337 -0 -0.992114
  outer loop
   vertex -0.0188372 0.2 -0.299408
   vertex -0.0188372 -0.8 -0.299408
   vertex -0.0562144 0.2 -0.294686
  endloop
 endfacet
 facet normal -0.125337 0 -0.992114
  outer loop
   vertex -0.0562144 -0.8 -0.294686
   vertex -0.0562144 0.2 -0.294686
   vertex -0.0188372 -0.8 -0.299408
  endloop
 endfacet
 facet normal -0.248684 -0 -0.968585
  outer loop
   vertex -0.0562144 0.2 -0.294686
   vertex -0.0562144 -0.8 -0.294686
   vertex -0.0927051 0.2 -0.285317
  endloop
 endfacet
 facet normal -0.248684 0 -0.968585
  outer loop
   vertex -0.0927051 -0.8 -0.285317
   vertex -0.0927051 0.2 -0.285317
   vertex -0.0562144 -0.8 -0.294686
  endloop
 endfacet
 facet normal -0.368126 -0 -0.929776
  outer loop
   vertex -0.0927051 0.2 -0.285317
   vertex -0.0927051 -0.8 -0.285317
   vertex -0.127734 0.2 -0.271448
  endloop
 endfacet
 facet normal -0.368126 0 -0.929776
  outer loop
   vertex -0.127734 -0.8 -0.271448
   vertex -0.127734 0.2 -0.271448
   vertex -0.0927051 -0.8 -0.285317
  endloop
 endfacet
 facet normal -0.481762 -0 -0.876302
  outer loop
   vertex -0.127734 0.2 -0.271448
   vertex -0.127734 -0.8 -0.271448
   vertex -0.160748 0.2 -0.253298
  endloop
 endfacet
 facet normal -0.481762 0 -0.876302
  outer loop
   vertex -0.160748 -0.8 -0.253298
   vertex -0.160748 0.2 -0.253298
   vertex -0.127734 -0.8 -0.271448
  endloop
 endfacet
 facet normal -0.58778 -0 -0.809021
  outer loop
   vertex -0.160748 0.2 -0.253298
   vertex -0.160748 -0.8 -0.253298
   vertex -0.191227 0.2 -0.231154
  endloop
 endfacet
 facet normal -0.58778 -0 -0.809021
  outer loop
   vertex -0.191227 0.2 -0.231154
   vertex -0.160748 -0.8 -0.253298
   vertex -0.191227 -0.8 -0.231154
  endloop
 endfacet
 facet normal -0.684541 -0 -0.728974
  outer loop
   vertex -0.191227 0.2 -0.231154
   vertex -0.191227 -0.8 -0.231154
   vertex -0.218691 0.2 -0.205364
  endloop
 endfacet
 facet normal -0.684541 0 -0.728974
  outer loop
   vertex -0.218691 -0.8 -0.205364
   vertex -0.218691 0.2 -0.205364
   vertex -0.191227 -0.8 -0.231154
  endloop
 endfacet
 facet normal -0.770514 -0 -0.637423
  outer loop
   vertex -0.218691 0.2 -0.205364
   vertex -0.218691 -0.8 -0.205364
   vertex -0.242705 0.2 -0.176336
  endloop
 endfacet
 facet normal -0.770514 0 -0.637423
  outer loop
   vertex -0.242705 -0.8 -0.176336
   vertex -0.242705 0.2 -0.176336
   vertex -0.218691 -0.8 -0.205364
  endloop
 endfacet
 facet normal -0.844331 -0 -0.535822
  outer loop
   vertex -0.242705 0.2 -0.176336
   vertex -0.242705 -0.8 -0.176336
   vertex -0.262892 0.2 -0.144526
  endloop
 endfacet
 facet normal -0.844331 0 -0.535822
  outer loop
   vertex -0.262892 -0.8 -0.144526
   vertex -0.262892 0.2 -0.144526
   vertex -0.242705 -0.8 -0.176336
  endloop
 endfacet
 facet normal -0.904828 -0 -0.425778
  outer loop
   vertex -0.262892 0.2 -0.144526
   vertex -0.262892 -0.8 -0.144526
   vertex -0.278933 0.2 -0.110437
  endloop
 endfacet
 facet normal -0.904828 -0 -0.425778
  outer loop
   vertex -0.278933 0.2 -0.110437
   vertex -0.262892 -0.8 -0.144526
   vertex -0.278933 -0.8 -0.110437
  endloop
 endfacet
 facet normal -0.951056 -0 -0.30902
  outer loop
   vertex -0.278933 0.2 -0.110437
   vertex -0.278933 -0.8 -0.110437
   vertex -0.290575 0.2 -0.074607
  endloop
 endfacet
 facet normal -0.951056 0 -0.30902
  outer loop
   vertex -0.290575 -0.8 -0.074607
   vertex -0.290575 0.2 -0.074607
   vertex -0.278933 -0.8 -0.110437
  endloop
 endfacet
 facet normal -0.98229 -0 -0.187369
  outer loop
   vertex -0.290575 0.2 -0.074607
   vertex -0.290575 -0.8 -0.074607
   vertex -0.297634 0.2 -0.0376
  endloop
 endfacet
 facet normal -0.98229 0 -0.187369
  outer loop
   vertex -0.297634 -0.8 -0.0376
   vertex -0.297634 0.2 -0.0376
   vertex -0.290575 -0.8 -0.074607
  endloop
 endfacet
 facet normal -0.998026 -0 -0.0628013
  outer loop
   vertex -0.297634 0.2 -0.0376
   vertex -0.297634 -0.8 -0.0376
   vertex -0.3 0.2 1.23062e-10
  endloop
 endfacet
 facet normal -0.998026 0 -0.0628013
  outer loop
   vertex -0.3 -0.8 1.23062e-10
   vertex -0.3 0.2 1.23062e-10
   vertex -0.297634 -0.8 -0.0376
  endloop
 endfacet
 facet normal -0.998026 0 0.0628013
  outer loop
   vertex -0.3 0.2 1.23062e-10
   vertex -0.3 -0.8 1.23062e-10
   vertex -0.297634 0.2 0.0376
  endloop
 endfacet
 facet normal -0.998026 0 0.0628013
  outer loop
   vertex -0.297634 -0.8 0.0376
   vertex -0.297634 0.2 0.0376
   vertex -0.3 -0.8 1.23062e-10
  endloop
 endfacet
 facet normal -0.98229 0 0.187369
  outer loop
   vertex -0.297634 0.2 0.0376
   vertex -0.297634 -0.8 0.0376
   vertex -0.290575 0.2 0.074607
  endloop
 endfacet
 facet normal -0.98229 0 0.187369
  outer loop
   vertex -0.290575 -0.8 0.074607
   vertex -0.290575 0.2 0.074607
   vertex -0.297634 -0.8 0.0376
  endloop
 endfacet
 facet normal -0.951056 0 0.30902
  outer loop
   vertex -0.290575 0.2 0.074607
   vertex -0.290575 -0.8 0.074607
   vertex -0.278933 0.2 0.110437
  endloop
 endfacet
 facet normal -0.951056 0 0.30902
  outer loop
   vertex -0.278933 -0.8 0.110437
   vertex -0.278933 0.2 0.110437
   vertex -0.290575 -0.8 0.074607
  endloop
 endfacet
 facet normal -0.904828 0 0.425778
  outer loop
   vertex -0.278933 0.2 0.110437
   vertex -0.278933 -0.8 0.110437
   vertex -0.262892 0.2 0.144526
  endloop
 endfacet
 facet normal -0.904828 0 0.425778
  outer loop
   vertex -0.262892 0.2 0.144526
   vertex -0.278933 -0.8 0.110437
   vertex -0.262892 -0.8 0.144526
  endloop
 endfacet
 facet normal -0.844331 0 0.535822
  outer loop
   vertex -0.262892 0.2 0.144526
   vertex -0.262892 -0.8 0.144526
   vertex -0.242705 0.2 0.176336
  endloop
 endfacet
 facet normal -0.844331 0 0.535822
  outer loop
   vertex -0.242705 -0.8 0.176336
   vertex -0.242705 0.2 0.176336
   vertex -0.262892 -0.8 0.144526
  endloop
 endfacet
 facet normal -0.770514 0 0.637423
  outer loop
   vertex -0.242705 0.2 0.176336
   vertex -0.242705 -0.8 0.176336
   vertex -0.218691 0.2 0.205364
  endloop
 endfacet
 facet normal -0.770514 0 0.637423
  outer loop
   vertex -0.218691 -0.8 0.205364
   vertex -0.218691 0.2 0.205364
   vertex -0.242705 -0.8 0.176336
  endloop
 endfacet
 facet normal -0.684541 0 0.728974
  outer loop
   vertex -0.218691 0.2 0.205364
   vertex -0.218691 -0.8 0.205364
   vertex -0.191227 0.2 0.231154
  endloop
 endfacet
 facet normal -0.684541 0 0.728974
  outer loop
   vertex -0.191227 -0.8 0.231154
   vertex -0.191227 0.2 0.231154
   vertex -0.218691 -0.8 0.205364
  endloop
 endfacet
 facet normal -0.58778 0 0.809021
  outer loop
   vertex -0.191227 0.2 0.231154
   vertex -0.191227 -0.8 0.231154
   vertex -0.160748 0.2 0.253298
  endloop
 endfacet
 facet normal -0.58778 0 0.809021
  outer loop
   vertex -0.160748 0.2 0.253298
   vertex -0.191227 -0.8 0.231154
   vertex -0.160748 -0.8 0.253298
  endloop
 endfacet
 facet normal -0.481762 0 0.876302
  outer loop
   vertex -0.160748 0.2 0.253298
   vertex -0.160748 -0.8 0.253298
   vertex -0.127734 0.2 0.271448
  endloop
 endfacet
 facet normal -0.481762 0 0.876302
  outer loop
   vertex -0.127734 -0.8 0.271448
   vertex -0.127734 0.2 0.271448
   vertex -0.160748 -0.8 0.253298
  endloop
 endfacet
 facet normal -0.368126 0 0.929776
  outer loop
   vertex -0.127734 0.2 0.271448
   vertex -0.127734 -0.8 0.271448
   vertex -0.0927051 0.2 0.285317
  endloop
 endfacet
 facet normal -0.368126 0 0.929776
  outer loop
   vertex -0.0927051 -0.8 0.285317
   vertex -0.0927051 0.2 0.285317
   vertex -0.127734 -0.8 0.271448
  endloop
 endfacet
 facet normal -0.248684 0 0.968585
  outer loop
   vertex -0.0927051 0.2 0.285317
   vertex -0.0927051 -0.8 0.285317
   vertex -0.0562144 0.2 0.294686
  endloop
 endfacet
 facet normal -0.248684 0 0.968585
  outer loop
   vertex -0.0562144 -0.8 0.294686
   vertex -0.0562144 0.2 0.294686
   vertex -0.0927051 -0.8 0.285317
  endloop
 endfacet
 facet normal -0.125337 0 0.992114
  outer loop
   vertex -0.0562144 0.2 0.294686
   vertex -0.0562144 -0.8 0.294686
   vertex -0.0188372 0.2 0.299408
  endloop
 endfacet
 facet normal -0.125337 0 0.992114
  outer loop
   vertex -0.0188372 -0.8 0.299408
   vertex -0.0188372 0.2 0.299408
   vertex -0.0562144 -0.8 0.294686
  endloop
 endfacet
 facet normal -0 0 1
  outer loop
   vertex -0.0188372 0.2 0.299408
   vertex -0.0188372 -0.8 0.299408
   vertex 0.0188372 0.2 0.299408
  endloop
 endfacet
 facet normal 0 -0 1
  outer loop
   vertex 0.0188372 -0.8 0.299408
   vertex 0.0188372 0.2 0.299408
   vertex -0.0188372 -0.8 0.299408
  endloop
 endfacet
 facet normal 0.125337 0 0.992114
  outer loop
   vertex 0.0188372 0.2 0.299408
   vertex 0.0188372 -0.8 0.299408
   vertex 0.0562144 0.2 0.294686
  endloop
 endfacet
 facet normal 0.125337 -0 0.992114
  outer loop
   vertex 0.0562144 -0.8 0.294686
   vertex 0.0562144 0.2 0.294686
   vertex 0.0188372 -0.8 0.299408
  endloop
 endfacet
 facet normal 0.248684 0 0.968585
  outer loop
   vertex 0.0562144 0.2 0.294686
   vertex 0.0562144 -0.8 0.294686
   vertex 0.0927051 0.2 0.285317
  endloop
 endfacet
 facet normal 0.248684 -0 0.968585
  outer loop
   vertex 0.0927051 -0.8 0.285317
   vertex 0.0927051 0.2 0.285317
   vertex 0.0562144 -0.8 0.294686
  endloop
 endfacet
 facet normal 0.368126 0 0.929776
  outer loop
   vertex 0.0927051 0.2 0.285317
   vertex 0.0927051 -0.8 0.285317
   vertex 0.127734 0.2 0.271448
  endloop
 endfacet
 facet normal 0.368126 -0 0.929776
  outer loop
   vertex 0.127734 -0.8 0.271448
   vertex 0.127734 0.2 0.271448
   vertex 0.0927051 -0.8 0.285317
  endloop
 endfacet
 facet normal 0.481762 0 0.876302
  outer loop
   vertex 0.127734 0.2 0.271448
   vertex 0.127734 -0.8 0.271448
   vertex 0.160748 0.2 0.253298
  endloop
 endfacet
 facet normal 0.481762 -0 0.876302
  outer loop
   vertex 0.160748 -0.8 0.253298
   vertex 0.160748 0.2 0.253298
   vertex 0.127734 -0.8 0.271448
  endloop
 endfacet
 facet normal 0.58778 0 0.809021
  outer loop
   vertex 0.160748 0.2 0.253298
   vertex 0.160748 -0.8 0.253298
   vertex 0.191227 0.2 0.231154
  endloop
 endfacet
 facet normal 0.58778 0 0.809021
  outer loop
   vertex 0.191227 0.2 0.231154
   vertex 0.160748 -0.8 0.253298
   vertex 0.191227 -0.8 0.231154
  endloop
 endfacet
 facet normal 0.684541 0 0.728974
  outer loop
   vertex 0.191227 0.2 0.231154
   vertex 0.191227 -0.8 0.231154
   vertex 0.218691 0.2 0.205364
  endloop
 endfacet
 facet normal 0.684541 -0 0.728974
  outer loop
   vertex 0.218691 -0.8 0.205364
   vertex 0.218691 0.2 0.205364
   vertex 0.191227 -0.8 0.231154
  endloop
 endfacet
 facet normal 0.770514 0 0.637423
  outer loop
   vertex 0.218691 0.2 0.205364
   vertex 0.218691 -0.8 0.205364
   vertex 0.242705 0.2 0.176336
  endloop
 endfacet
 facet normal 0.770514 -0 0.637423
  outer loop
   vertex 0.242705 -0.8 0.176336
   vertex 0.242705 0.2 0.176336
   vertex 0.218691 -0.8 0.205364
  endloop
 endfacet
 facet normal 0.844331 0 0.535822
  outer loop
   vertex 0.242705 0.2 0.176336
   vertex 0.242705 -0.8 0.176336
   vertex 0.262892 0.2 0.144526
  endloop
 endfacet
 facet normal 0.844331 -0 0.535822
  outer loop
   vertex 0.262892 -0.8 0.144526
   vertex 0.262892 0.2 0.144526
   vertex 0.242705 -0.8 0.176336
  endloop
 endfacet
 facet normal 0.904828 0 0.425778
  outer loop
   vertex 0.262892 0.2 0.144526
   vertex 0.262892 -0.8 0.144526
   vertex 0.278933 0.2 0.110437
  endloop
 endfacet
 facet normal 0.904828 0 0.425778
  outer loop
   vertex 0.278933 0.2 0.110437
   vertex 0.262892 -0.8 0.144526
   vertex 0.278933 -0.8 0.110437
  endloop
 endfacet
 facet normal 0.951056 0 0.30902
  outer loop
   vertex 0.278933 0.2 0.110437
   vertex 0.278933 -0.8 0.110437
   vertex 0.290575 0.2 0.074607
  endloop
 endfacet
 facet normal 0.951056 -0 0.30902
  outer loop
   vertex 0.290575 -0.8 0.074607
   vertex 0.290575 0.2 0.074607
   vertex 0.278933 -0.8 0.110437
  endloop
 endfacet
 facet normal 0.98229 0 0.187369
  outer loop
   vertex 0.290575 0.2 0.074607
   vertex 0.290575 -0.8 0.074607
   vertex 0.297634 0.2 0.0376
  endloop
 endfacet
 facet normal 0.98229 -0 0.187369
  outer loop
   vertex 0.297634 -0.8 0.0376
   vertex 0.297634 0.2 0.0376
   vertex 0.290575 -0.8 0.074607
  endloop
 endfacet
 facet normal 0.998026 0 0.0628013
  outer loop
   vertex 0.297634 0.2 0.0376
   vertex 0.297634 -0.8 0.0376
   vertex 0.3 0.2 0
  endloop
 endfacet
 facet normal 0.998026 -0 0.0628013
  outer loop
   vertex 0.3 -0.8 0
   vertex 0.3 0.2 0
   vertex 0.297634 -0.8 0.0376
  endloop
 endfacet
 facet normal 0 1 -0
  outer loop
   vertex 0.278933 0.2 -0.110437
   vertex 0.262892 0.2 -0.144526
   vertex 0.290575 0.2 -0.074607
  endloop
 endfacet
 facet normal 0 1 -0
  outer loop
   vertex 0.262892 0.2 -0.144526
   vertex 0.242705 0.2 -0.176336
   vertex 0.290575 0.2 -0.074607
  endloop
 endfacet
 facet normal 0 1 -0
  outer loop
   vertex 0.242705 0.2 -0.176336
   vertex 0.218691 0.2 -0.205364
   vertex 0.290575 0.2 -0.074607
  endloop
 endfacet
 facet normal 0 1 -0
  outer loop
   vertex 0.218691 0.2 -0.205364
   vertex 0.191227 0.2 -0.231154
   vertex 0.290575 0.2 -0.074607
  endloop
 endfacet
 facet normal 0 1 -0
  outer loop
   vertex 0.191227 0.2 -0.231154
   vertex 0.160748 0.2 -0.253298
   vertex 0.290575 0.2 -0.074607
  endloop
 endfacet
 facet normal 0 1 -0
  outer loop
   vertex 0.160748 0.2 -0.253298
   vertex 0.127734 0.2 -0.271448
   vertex 0.290575 0.2 -0.074607
  endloop
 endfacet
 facet normal 0 1 -0
  outer loop
   vertex 0.127734 0.2 -0.271448
   vertex 0.0927051 0.2 -0.285317
   vertex 0.290575 0.2 -0.074607
  endloop
 endfacet
 facet normal 0 1 -0
  outer loop
   vertex 0.0927051 0.2 -0.285317
   vertex 0.0562144 0.2 -0.294686
   vertex 0.290575 0.2 -0.074607
  endloop
 endfacet
 facet normal 0 1 -0
  outer loop
   vertex 0.0562144 0.2 -0.294686
   vertex 0.0188372 0.2 -0.299408
   vertex 0.290575 0.2 -0.074607
  endloop
 endfacet
 facet normal 0 1 -0
  outer loop
   vertex 0.0188372 0.2 -0.299408
   vertex -0.0188372 0.2 -0.299408
   vertex 0.290575 0.2 -0.074607
  endloop
 endfacet
 facet normal 0 1 -0
  outer loop
   vertex -0.0188372 0.2 -0.299408
   vertex -0.0562144 0.2 -0.294686
   vertex 0.290575 0.2 -0.074607
  endloop
 endfacet
 facet normal 0 1 -0
  outer loop
   vertex -0.0562144 0.2 -0.294686
   vertex -0.0927051 0.2 -0.285317
   vertex 0.290575 0.2 -0.074607
  endloop
 endfacet
 facet normal 0 1 -0
  outer loop
   vertex -0.0927051 0.2 -0.285317
   vertex -0.127734 0.2 -0.271448
   vertex 0.290575 0.2 -0.074607
  endloop
 endfacet
 facet normal 0 1 -0
  outer loop
   vertex -0.127734 0.2 -0.271448
   vertex -0.160748 0.2 -0.253298
   vertex 0.290575 0.2 -0.074607
  endloop
 endfacet
 facet normal 0 1 -0
  outer loop
   vertex -0.160748 0.2 -0.253298
   vertex -0.191227 0.2 -0.231154
   vertex 0.290575 0.2 -0.074607
  endloop
 endfacet
 facet normal 0 1 -0
  outer loop
   vertex -0.191227 0.2 -0.231154
   vertex -0.218691 0.2 -0.205364
   vertex 0.290575 0.2 -0.074607
  endloop
 endfacet
 facet normal 0 1 -0
  outer loop
   vertex -0.218691 0.2 -0.205364
   vertex -0.242705 0.2 -0.176336
   vertex 0.290575 0.2 -0.074607
  endloop
 endfacet
 facet normal 0 1 -0
  outer loop
   vertex -0.242705 0.2 -0.176336
   vertex -0.262892 0.2 -0.144526
   vertex 0.290575 0.2 -0.074607
  endloop
 endfacet
 facet normal 0 1 -0
  outer loop
   vertex -0.262892 0.2 -0.144526
   vertex -0.278933 0.2 -0.110437
   vertex 0.290575 0.2 -0.074607
  endloop
 endfacet
 facet normal 0 1 -0
  outer loop
   vertex -0.278933 0.2 -0.110437
   vertex -0.290575 0.2 -0.074607
   vertex 0.290575 0.2 -0.074607
  endloop
 endfacet
 facet normal 0 1 -0
  outer loop
   vertex 0.290575 0.2 -0.074607
   vertex -0.290575 0.2 -0.074607
   vertex 0.297634 0.2 -0.0376
  endloop
 endfacet
 facet normal 0 1 -0
  outer loop
   vertex 0.297634 0.2 -0.0376
   vertex -0.290575 0.2 -0.074607
   vertex 0.3 0.2 0
  endloop
 endfacet
 facet normal 0 1 0
  outer loop
   vertex 0.3 0.2 0
   vertex -0.290575 0.2 -0.074607
   vertex 0.297634 0.2 0.0376
  endloop
 endfacet
 facet normal 0 1 0
  outer loop
   vertex 0.297634 0.2 0.0376
   vertex -0.290575 0.2 -0.074607
   vertex 0.290575 0.2 0.074607
  endloop
 endfacet
 facet normal 0 1 -0
  outer loop
   vertex -0.290575 0.2 -0.074607
   vertex -0.297634 0.2 -0.0376
   vertex 0.290575 0.2 0.074607
  endloop
 endfacet
 facet normal 0 1 -0
  outer loop
   vertex -0.297634 0.2 -0.0376
   vertex -0.3 0.2 1.23062e-10
   vertex 0.290575 0.2 0.074607
  endloop
 endfacet
 facet normal 0 1 0
  outer loop
   vertex -0.3 0.2 1.23062e-10
   vertex -0.297634 0.2 0.0376
   vertex 0.290575 0.2 0.074607
  endloop
 endfacet
 facet normal 0 1 0
  outer loop
   vertex -0.297634 0.2 0.0376
   vertex -0.290575 0.2 0.074607
   vertex 0.290575 0.2 0.074607
  endloop
 endfacet
 facet normal 0 1 0
  outer loop
   vertex 0.290575 0.2 0.074607
   vertex -0.290575 0.2 0.074607
   vertex 0.278933 0.2 0.110437
  endloop
 endfacet
 facet normal 0 1 0
  outer loop
   vertex 0.278933 0.2 0.110437
   vertex -0.290575 0.2 0.074607
   vertex 0.262892 0.2 0.144526
  endloop
 endfacet
 facet normal 0 1 0
  outer loop
   vertex -0.290575 0.2 0.074607
   vertex -0.278933 0.2 0.110437
   vertex 0.262892 0.2 0.144526
  endloop
 endfacet
 facet normal 0 1 0
  outer loop
   vertex -0.278933 0.2 0.110437
   vertex -0.262892 0.2 0.144526
   vertex 0.262892 0.2 0.144526
  endloop
 endfacet
 facet normal 0 1 0
  outer loop
   vertex 0.262892 0.2 0.144526
   vertex -0.262892 0.2 0.144526
   vertex 0.242705 0.2 0.176336
  endloop
 endfacet
 facet normal 0 1 0
  outer loop
   vertex 0.242705 0.2 0.176336
   vertex -0.262892 0.2 0.144526
   vertex 0.218691 0.2 0.205364
  endloop
 endfacet
 facet normal 0 1 0
  outer loop
   vertex 0.218691 0.2 0.205364
   vertex -0.262892 0.2 0.144526
   vertex 0.191227 0.2 0.231154
  endloop
 endfacet
 facet normal 0 1 0
  outer loop
   vertex -0.262892 0.2 0.144526
   vertex -0.242705 0.2 0.176336
   vertex 0.191227 0.2 0.231154
  endloop
 endfacet
 facet normal 0 1 0
  outer loop
   vertex -0.242705 0.2 0.176336
   vertex -0.218691 0.2 0.205364
   vertex 0.191227 0.2 0.231154
  endloop
 endfacet
 facet normal 0 1 0
  outer loop
   vertex -0.218691 0.2 0.205364
   vertex -0.191227 0.2 0.231154
   vertex 0.191227 0.2 0.231154
  endloop
 endfacet
 facet normal 0 1 0
  outer loop
   vertex 0.191227 0.2 0.231154
   vertex -0.191227 0.2 0.231154
   vertex 0.160748 0.2 0.253298
  endloop
 endfacet
 facet normal 0 1 0
  outer loop
   vertex 0.160748 0.2 0.253298
   vertex -0.191227 0.2 0.231154
   vertex 0.127734 0.2 0.271448
  endloop
 endfacet
 facet normal 0 1 0
  outer loop
   vertex 0.127734 0.2 0.271448
   vertex -0.191227 0.2 0.231154
   vertex 0.0927051 0.2 0.285317
  endloop
 endfacet
 facet normal 0 1 0
  outer loop
   vertex 0.0927051 0.2 0.285317
   vertex -0.191227 0.2 0.231154
   vertex 0.0562144 0.2 0.294686
  endloop
 endfacet
 facet normal 0 1 0
  outer loop
   vertex 0.0562144 0.2 0.294686
   vertex -0.191227 0.2 0.231154
   vertex 0.0188372 0.2 0.299408
  endloop
 endfacet
 facet normal 0 1 0
  outer loop
   vertex 0.0188372 0.2 0.299408
   vertex -0.191227 0.2 0.231154
   vertex -0.0188372 0.2 0.299408
  endloop
 endfacet
 facet normal 0 1 0
  outer loop
   vertex -0.0188372 0.2 0.299408
   vertex -0.191227 0.2 0.231154
   vertex -0.0562144 0.2 0.294686
  endloop
 endfacet
 facet normal 0 1 0
  outer loop
   vertex -0.0562144 0.2 0.294686
   vertex -0.191227 0.2 0.231154
   vertex -0.0927051 0.2 0.285317
  endloop
 endfacet
 facet normal 0 1 0
  outer loop
   vertex -0.0927051 0.2 0.285317
   vertex -0.191227 0.2 0.231154
   vertex -0.127734 0.2 0.271448
  endloop
 endfacet
 facet normal -0 1 0
  outer loop
   vertex -0.160748 0.2 0.253298
   vertex -0.127734 0.2 0.271448
   vertex -0.191227 0.2 0.231154
  endloop
 endfacet
 facet normal -0 -1 -0
  outer loop
   vertex 0.278933 -0.8 0.110437
   vertex 0.262892 -0.8 0.144526
   vertex 0.290575 -0.8 0.074607
  endloop
 endfacet
 facet normal -0 -1 -0
  outer loop
   vertex 0.262892 -0.8 0.144526
   vertex 0.242705 -0.8 0.176336
   vertex 0.290575 -0.8 0.074607
  endloop
 endfacet
 facet normal -0 -1 -0
  outer loop
   vertex 0.242705 -0.8 0.176336
   vertex 0.218691 -0.8 0.205364
   vertex 0.290575 -0.8 0.074607
  endloop
 endfacet
 facet normal -0 -1 -0
  outer loop
   vertex 0.218691 -0.8 0.205364
   vertex 0.191227 -0.8 0.231154
   vertex 0.290575 -0.8 0.074607
  endloop
 endfacet
 facet normal -0 -1 -0
  outer loop
   vertex 0.191227 -0.8 0.231154
   vertex 0.160748 -0.8 0.253298
   vertex 0.290575 -0.8 0.074607
  endloop
 endfacet
 facet normal -0 -1 -0
  outer loop
   vertex 0.160748 -0.8 0.253298
   vertex 0.127734 -0.8 0.271448
   vertex 0.290575 -0.8 0.074607
  endloop
 endfacet
 facet normal -0 -1 -0
  outer loop
   vertex 0.127734 -0.8 0.271448
   vertex 0.0927051 -0.8 0.285317
   vertex 0.290575 -0.8 0.074607
  endloop
 endfacet
 facet normal -0 -1 -0
  outer loop
   vertex 0.0927051 -0.8 0.285317
   vertex 0.0562144 -0.8 0.294686
   vertex 0.290575 -0.8 0.074607
  endloop
 endfacet
 facet normal -0 -1 -0
  outer loop
   vertex 0.0562144 -0.8 0.294686
   vertex 0.0188372 -0.8 0.299408
   vertex 0.290575 -0.8 0.074607
  endloop
 endfacet
 facet normal -0 -1 -0
  outer loop
   vertex 0.0188372 -0.8 0.299408
   vertex -0.0188372 -0.8 0.299408
   vertex 0.290575 -0.8 0.074607
  endloop
 endfacet
 facet normal 0 -1 -0
  outer loop
   vertex -0.0188372 -0.8 0.299408
   vertex -0.0562144 -0.8 0.294686
   vertex 0.290575 -0.8 0.074607
  endloop
 endfacet
 facet normal 0 -1 -0
  outer loop
   vertex -0.0562144 -0.8 0.294686
   vertex -0.0927051 -0.8 0.285317
   vertex 0.290575 -0.8 0.074607
  endloop
 endfacet
 facet normal 0 -1 -0
  outer loop
   vertex -0.0927051 -0.8 0.285317
   vertex -0.127734 -0.8 0.271448
   vertex 0.290575 -0.8 0.074607
  endloop
 endfacet
 facet normal 0 -1 -0
  outer loop
   vertex -0.127734 -0.8 0.271448
   vertex -0.160748 -0.8 0.253298
   vertex 0.290575 -0.8 0.074607
  endloop
 endfacet
 facet normal 0 -1 -0
  outer loop
   vertex -0.160748 -0.8 0.253298
   vertex -0.191227 -0.8 0.231154
   vertex 0.290575 -0.8 0.074607
  endloop
 endfacet
 facet normal 0 -1 -0
  outer loop
   vertex -0.191227 -0.8 0.231154
   vertex -0.218691 -0.8 0.205364
   vertex 0.290575 -0.8 0.074607
  endloop
 endfacet
 facet normal 0 -1 -0
  outer loop
   vertex -0.218691 -0.8 0.205364
   vertex -0.242705 -0.8 0.176336
   vertex 0.290575 -0.8 0.074607
  endloop
 endfacet
 facet normal 0 -1 -0
  outer loop
   vertex -0.242705 -0.8 0.176336
   vertex -0.262892 -0.8 0.144526
   vertex 0.290575 -0.8 0.074607
  endloop
 endfacet
 facet normal 0 -1 -0
  outer loop
   vertex -0.262892 -0.8 0.144526
   vertex -0.278933 -0.8 0.110437
   vertex 0.290575 -0.8 0.074607
  endloop
 endfacet
 facet normal 0 -1 -0
  outer loop
   vertex -0.278933 -0.8 0.110437
   vertex -0.290575 -0.8 0.074607
   vertex 0.290575 -0.8 0.074607
  endloop
 endfacet
 facet normal 0 -1 -0
  outer loop
   vertex -0.290575 -0.8 0.074607
   vertex -0.297634 -0.8 0.0376
   vertex 0.290575 -0.8 0.074607
  endloop
 endfacet
 facet normal 0 -1 -0
  outer loop
   vertex -0.297634 -0.8 0.0376
   vertex -0.3 -0.8 1.23062e-10
   vertex 0.290575 -0.8 0.074607
  endloop
 endfacet
 facet normal 0 -1 0
  outer loop
   vertex -0.3 -0.8 1.23062e-10
   vertex -0.297634 -0.8 -0.0376
   vertex 0.290575 -0.8 0.074607
  endloop
 endfacet
 facet normal 0 -1 0
  outer loop
   vertex -0.297634 -0.8 -0.0376
   vertex -0.290575 -0.8 -0.074607
   vertex 0.290575 -0.8 0.074607
  endloop
 endfacet
 facet normal 0 -1 -0
  outer loop
   vertex 0.290575 -0.8 0.074607
   vertex -0.290575 -0.8 -0.074607
   vertex 0.297634 -0.8 0.0376
  endloop
 endfacet
 facet normal 0 -1 -0
  outer loop
   vertex 0.297634 -0.8 0.0376
   vertex -0.290575 -0.8 -0.074607
   vertex 0.3 -0.8 0
  endloop
 endfacet
 facet normal 0 -1 0
  outer loop
   vertex 0.3 -0.8 0
   vertex -0.290575 -0.8 -0.074607
   vertex 0.297634 -0.8 -0.0376
  endloop
 endfacet
 facet normal 0 -1 0
  outer loop
   vertex -0.290575 -0.8 -0.074607
   vertex -0.278933 -0.8 -0.110437
   vertex 0.297634 -0.8 -0.0376
  endloop
 endfacet
 facet normal 0 -1 0
  outer loop
   vertex -0.278933 -0.8 -0.110437
   vertex -0.262892 -0.8 -0.144526
   vertex 0.297634 -0.8 -0.0376
  endloop
 endfacet
 facet normal 0 -1 0
  outer loop
   vertex 0.297634 -0.8 -0.0376
   vertex -0.262892 -0.8 -0.144526
   vertex 0.290575 -0.8 -0.074607
  endloop
 endfacet
 facet normal 0 -1 0
  outer loop
   vertex 0.290575 -0.8 -0.074607
   vertex -0.262892 -0.8 -0.144526
   vertex 0.278933 -0.8 -0.110437
  endloop
 endfacet
 facet normal 0 -1 0
  outer loop
   vertex 0.278933 -0.8 -0.110437
   vertex -0.262892 -0.8 -0.144526
   vertex 0.262892 -0.8 -0.144526
  endloop
 endfacet
 facet normal -0 -1 0
  outer loop
   vertex 0.262892 -0.8 -0.144526
   vertex -0.262892 -0.8 -0.144526
   vertex 0.242705 -0.8 -0.176336
  endloop
 endfacet
 facet normal -0 -1 0
  outer loop
   vertex 0.242705 -0.8 -0.176336
   vertex -0.262892 -0.8 -0.144526
   vertex 0.218691 -0.8 -0.205364
  endloop
 endfacet
 facet normal -0 -1 0
  outer loop
   vertex 0.218691 -0.8 -0.205364
   vertex -0.262892 -0.8 -0.144526
   vertex 0.191227 -0.8 -0.231154
  endloop
 endfacet
 facet normal 0 -1 0
  outer loop
   vertex -0.262892 -0.8 -0.144526
   vertex -0.242705 -0.8 -0.176336
   vertex 0.191227 -0.8 -0.231154
  endloop
 endfacet
 facet normal 0 -1 0
  outer loop
   vertex -0.242705 -0.8 -0.176336
   vertex -0.218691 -0.8 -0.205364
   vertex 0.191227 -0.8 -0.231154
  endloop
 endfacet
 facet normal 0 -1 0
  outer loop
   vertex -0.218691 -0.8 -0.205364
   vertex -0.191227 -0.8 -0.231154
   vertex 0.191227 -0.8 -0.231154
  endloop
 endfacet
 facet normal -0 -1 0
  outer loop
   vertex 0.191227 -0.8 -0.231154
   vertex -0.191227 -0.8 -0.231154
   vertex 0.160748 -0.8 -0.253298
  endloop
 endfacet
 facet normal -0 -1 0
  outer loop
   vertex 0.160748 -0.8 -0.253298
   vertex -0.191227 -0.8 -0.231154
   vertex 0.127734 -0.8 -0.271448
  endloop
 endfacet
 facet normal -0 -1 0
  outer loop
   vertex 0.127734 -0.8 -0.271448
   vertex -0.191227 -0.8 -0.231154
   vertex 0.0927051 -0.8 -0.285317
  endloop
 endfacet
 facet normal -0 -1 0
  outer loop
   vertex 0.0927051 -0.8 -0.285317
   vertex -0.191227 -0.8 -0.231154
   vertex 0.0562144 -0.8 -0.294686
  endloop
 endfacet
 facet normal -0 -1 0
  outer loop
   vertex 0.0562144 -0.8 -0.294686
   vertex -0.191227 -0.8 -0.231154
   vertex 0.0188372 -0.8 -0.299408
  endloop
 endfacet
 facet normal 0 -1 0
  outer loop
   vertex 0.0188372 -0.8 -0.299408
   vertex -0.191227 -0.8 -0.231154
   vertex -0.0188372 -0.8 -0.299408
  endloop
 endfacet
 facet normal 0 -1 0
  outer loop
   vertex -0.0188372 -0.8 -0.299408
   vertex -0.191227 -0.8 -0.231154
   vertex -0.0562144 -0.8 -0.294686
  endloop
 endfacet
 facet normal 0 -1 0
  outer loop
   vertex -0.0562144 -0.8 -0.294686
   vertex -0.191227 -0.8 -0.231154
   vertex -0.0927051 -0.8 -0.285317
  endloop
 endfacet
 facet normal 0 -1 0
  outer loop
   vertex -0.0927051 -0.8 -0.285317
   vertex -0.191227 -0.8 -0.231154
   vertex -0.127734 -0.8 -0.271448
  endloop
 endfacet
 facet normal 0 -1 0
  outer loop
   vertex -0.160748 -0.8 -0.253298
   vertex -0.127734 -0.8 -0.271448
   vertex -0.191227 -0.8 -0.231154
  endloop
 endfacet
endsolid ascii
